<mxfile host="app.diagrams.net" agent="Mozilla/5.0 (X11; Linux x86_64; rv:143.0) Gecko/20100101 Firefox/143.0" version="28.2.4">
  <diagram name="Page-1" id="suuexSSgnGuTv5H7utfE">
    <mxGraphModel dx="2480" dy="1221" grid="0" gridSize="10" guides="1" tooltips="1" connect="1" arrows="1" fold="1" page="0" pageScale="1" pageWidth="850" pageHeight="1100" math="0" shadow="0">
      <root>
        <mxCell id="0" />
        <mxCell id="1" parent="0" />
        <mxCell id="4FWR1JV6iRT2rkFkOXpq-4" value="" style="rounded=1;whiteSpace=wrap;html=1;fillColor=light-dark(#0000FF,#0000FF);fontColor=#ffffff;strokeColor=light-dark(#000000,#000000);" parent="1" vertex="1">
          <mxGeometry x="-850" y="-45" width="60" height="60" as="geometry" />
        </mxCell>
        <mxCell id="4FWR1JV6iRT2rkFkOXpq-5" value="" style="rounded=1;whiteSpace=wrap;html=1;strokeColor=light-dark(#000000,#000000);" parent="1" vertex="1">
          <mxGeometry x="-790" y="-45" width="60" height="60" as="geometry" />
        </mxCell>
        <mxCell id="4FWR1JV6iRT2rkFkOXpq-6" value="" style="rounded=1;whiteSpace=wrap;html=1;fillColor=light-dark(#0000FF,#0000FF);fontColor=#ffffff;strokeColor=light-dark(#000000,#000000);" parent="1" vertex="1">
          <mxGeometry x="-730" y="-45" width="60" height="60" as="geometry" />
        </mxCell>
        <mxCell id="4FWR1JV6iRT2rkFkOXpq-7" value="" style="rounded=1;whiteSpace=wrap;html=1;strokeColor=light-dark(#000000,#000000);" parent="1" vertex="1">
          <mxGeometry x="-670" y="-45" width="60" height="60" as="geometry" />
        </mxCell>
        <mxCell id="4FWR1JV6iRT2rkFkOXpq-8" value="" style="rounded=1;whiteSpace=wrap;html=1;fillColor=light-dark(#0000FF,#0000FF);fontColor=#ffffff;strokeColor=light-dark(#000000,#000000);" parent="1" vertex="1">
          <mxGeometry x="-610" y="-45" width="60" height="60" as="geometry" />
        </mxCell>
        <mxCell id="4FWR1JV6iRT2rkFkOXpq-9" value="" style="rounded=1;whiteSpace=wrap;html=1;strokeColor=light-dark(#000000,#000000);" parent="1" vertex="1">
          <mxGeometry x="-550" y="-45" width="60" height="60" as="geometry" />
        </mxCell>
        <mxCell id="4FWR1JV6iRT2rkFkOXpq-10" value="" style="rounded=1;whiteSpace=wrap;html=1;fillColor=light-dark(#0000FF,#0000FF);fontColor=#ffffff;strokeColor=light-dark(#000000,#000000);" parent="1" vertex="1">
          <mxGeometry x="-490" y="-45" width="60" height="60" as="geometry" />
        </mxCell>
        <mxCell id="4FWR1JV6iRT2rkFkOXpq-11" value="" style="rounded=1;whiteSpace=wrap;html=1;strokeColor=light-dark(#000000,#000000);" parent="1" vertex="1">
          <mxGeometry x="-430" y="-45" width="60" height="60" as="geometry" />
        </mxCell>
        <mxCell id="Nse0Ydo2CZ2FW5N-C37P-1" value="" style="rounded=1;whiteSpace=wrap;html=1;fillColor=light-dark(#0000FF,#0000FF);fontColor=#ffffff;strokeColor=light-dark(#000000,#000000);" vertex="1" parent="1">
          <mxGeometry x="-370" y="-45" width="60" height="60" as="geometry" />
        </mxCell>
      </root>
    </mxGraphModel>
  </diagram>
</mxfile>
